# xmcd
#
# Track frame offsets: 
#        150
#        22597
#        46713
#        66935
#        89806
#        114599
#        135865
#        156910
#        175144
#        194214
#        215892
#        235305
#        266047
#
# Disc length: 4177 seconds
#
# Revision: 0
# Processed by: cddbd v1.5.2PL0 Copyright (c) Steve Scherf et al.
# Submitted via: ExactAudioCopy v1.0b3
#
DISCID=bb104f0d
DTITLE=Various Artist - Song Discovery 105 (Nov-Dec 2012)
DYEAR=2012
DGENRE=Praise and Worship
TTITLE0=Bethel Live Feat. Brian Johnson - You Have Won Me
TTITLE1=Carl Cartee - Glory To Your Name
TTITLE2=Keith and Kristyn Getty - Christ Is Risen, He Is Risen Indeed
TTITLE3=Dustin Smith - Rushing Waters
TTITLE4=Anna Gilbert - Rest In The Light
TTITLE5=Christ For The Nations - Uncreated One
TTITLE6=Meredith Andrews - Your Kingdom Reigns
TTITLE7=MikesChair - Redemption Song
TTITLE8=Gateway Worship - As We Pray
TTITLE9=Sean Carter - Passion Song
TTITLE10=Salty Church Worship Feat Honey Swihart - Radiate
TTITLE11=Sean Hill - How Great The Love
TTITLE12=Data
EXTD=
EXTT0=
EXTT1=
EXTT2=
EXTT3=
EXTT4=
EXTT5=
EXTT6=
EXTT7=
EXTT8=
EXTT9=
EXTT10=
EXTT11=
EXTT12=
PLAYORDER=
